<mxfile host="app.diagrams.net" agent="Mozilla/5.0 (X11; Linux x86_64; rv:129.0) Gecko/20100101 Firefox/129.0" version="24.7.12">
  <diagram name="Page-1" id="e4cWMGjFBGgjinDZWGil">
    <mxGraphModel dx="2214" dy="1847" grid="1" gridSize="10" guides="1" tooltips="1" connect="1" arrows="1" fold="1" page="1" pageScale="1" pageWidth="850" pageHeight="1100" math="0" shadow="0">
      <root>
        <mxCell id="0" />
        <mxCell id="1" parent="0" />
        <mxCell id="U4rwWAQ99nn0N7G6rpjY-23" value="" style="rounded=0;whiteSpace=wrap;html=1;fillColor=default;strokeWidth=3;" parent="1" vertex="1">
          <mxGeometry x="160" y="-20" width="280" height="180" as="geometry" />
        </mxCell>
        <mxCell id="U4rwWAQ99nn0N7G6rpjY-24" value="" style="whiteSpace=wrap;html=1;aspect=fixed;strokeWidth=3;fillColor=#999999;" parent="1" vertex="1">
          <mxGeometry x="380" y="30" width="40" height="40" as="geometry" />
        </mxCell>
        <mxCell id="U4rwWAQ99nn0N7G6rpjY-25" value="" style="whiteSpace=wrap;html=1;aspect=fixed;strokeWidth=3;" parent="1" vertex="1">
          <mxGeometry x="180" y="30" width="40" height="40" as="geometry" />
        </mxCell>
        <mxCell id="U4rwWAQ99nn0N7G6rpjY-27" value="" style="whiteSpace=wrap;html=1;aspect=fixed;strokeWidth=3;" parent="1" vertex="1">
          <mxGeometry x="280" y="100" width="40" height="40" as="geometry" />
        </mxCell>
        <mxCell id="U4rwWAQ99nn0N7G6rpjY-18" value="" style="rounded=0;whiteSpace=wrap;html=1;fillColor=default;strokeWidth=3;" parent="1" vertex="1">
          <mxGeometry x="120" y="80" width="280" height="180" as="geometry" />
        </mxCell>
        <mxCell id="U4rwWAQ99nn0N7G6rpjY-19" value="" style="whiteSpace=wrap;html=1;aspect=fixed;strokeWidth=3;fillColor=#999999;" parent="1" vertex="1">
          <mxGeometry x="340" y="130" width="40" height="40" as="geometry" />
        </mxCell>
        <mxCell id="U4rwWAQ99nn0N7G6rpjY-20" value="" style="whiteSpace=wrap;html=1;aspect=fixed;strokeWidth=3;" parent="1" vertex="1">
          <mxGeometry x="140" y="130" width="40" height="40" as="geometry" />
        </mxCell>
        <mxCell id="U4rwWAQ99nn0N7G6rpjY-22" value="" style="whiteSpace=wrap;html=1;aspect=fixed;strokeWidth=3;" parent="1" vertex="1">
          <mxGeometry x="240" y="200" width="40" height="40" as="geometry" />
        </mxCell>
        <mxCell id="U4rwWAQ99nn0N7G6rpjY-7" value="" style="rounded=0;whiteSpace=wrap;html=1;fillColor=default;strokeWidth=3;" parent="1" vertex="1">
          <mxGeometry x="80" y="180" width="280" height="180" as="geometry" />
        </mxCell>
        <mxCell id="U4rwWAQ99nn0N7G6rpjY-8" value="" style="whiteSpace=wrap;html=1;aspect=fixed;strokeWidth=3;" parent="1" vertex="1">
          <mxGeometry x="300" y="230" width="40" height="40" as="geometry" />
        </mxCell>
        <mxCell id="U4rwWAQ99nn0N7G6rpjY-9" value="" style="whiteSpace=wrap;html=1;aspect=fixed;strokeWidth=3;" parent="1" vertex="1">
          <mxGeometry x="100" y="230" width="40" height="40" as="geometry" />
        </mxCell>
        <mxCell id="U4rwWAQ99nn0N7G6rpjY-11" value="" style="whiteSpace=wrap;html=1;aspect=fixed;strokeWidth=3;" parent="1" vertex="1">
          <mxGeometry x="200" y="300" width="40" height="40" as="geometry" />
        </mxCell>
        <mxCell id="U4rwWAQ99nn0N7G6rpjY-2" value="" style="rounded=0;whiteSpace=wrap;html=1;fillColor=default;strokeWidth=3;" parent="1" vertex="1">
          <mxGeometry x="40" y="280" width="280" height="180" as="geometry" />
        </mxCell>
        <mxCell id="U4rwWAQ99nn0N7G6rpjY-3" value="" style="whiteSpace=wrap;html=1;aspect=fixed;strokeWidth=3;" parent="1" vertex="1">
          <mxGeometry x="260" y="330" width="40" height="40" as="geometry" />
        </mxCell>
        <mxCell id="U4rwWAQ99nn0N7G6rpjY-4" value="" style="whiteSpace=wrap;html=1;aspect=fixed;strokeWidth=3;" parent="1" vertex="1">
          <mxGeometry x="60" y="330" width="40" height="40" as="geometry" />
        </mxCell>
        <mxCell id="U4rwWAQ99nn0N7G6rpjY-5" value="" style="ellipse;whiteSpace=wrap;html=1;aspect=fixed;strokeWidth=3;" parent="1" vertex="1">
          <mxGeometry x="165" y="335" width="30" height="30" as="geometry" />
        </mxCell>
        <mxCell id="U4rwWAQ99nn0N7G6rpjY-6" value="" style="whiteSpace=wrap;html=1;aspect=fixed;fillColor=#999999;strokeWidth=3;" parent="1" vertex="1">
          <mxGeometry x="160" y="400" width="40" height="40" as="geometry" />
        </mxCell>
        <mxCell id="U4rwWAQ99nn0N7G6rpjY-28" value="" style="rounded=0;whiteSpace=wrap;html=1;fillColor=default;strokeWidth=3;" parent="1" vertex="1">
          <mxGeometry x="540" y="-20" width="280" height="180" as="geometry" />
        </mxCell>
        <mxCell id="U4rwWAQ99nn0N7G6rpjY-29" value="" style="whiteSpace=wrap;html=1;aspect=fixed;strokeWidth=3;" parent="1" vertex="1">
          <mxGeometry x="760" y="30" width="40" height="40" as="geometry" />
        </mxCell>
        <mxCell id="U4rwWAQ99nn0N7G6rpjY-30" value="" style="whiteSpace=wrap;html=1;aspect=fixed;strokeWidth=3;fillColor=#999999;" parent="1" vertex="1">
          <mxGeometry x="560" y="30" width="40" height="40" as="geometry" />
        </mxCell>
        <mxCell id="U4rwWAQ99nn0N7G6rpjY-31" value="" style="ellipse;whiteSpace=wrap;html=1;aspect=fixed;strokeWidth=3;" parent="1" vertex="1">
          <mxGeometry x="665" y="35" width="30" height="30" as="geometry" />
        </mxCell>
        <mxCell id="U4rwWAQ99nn0N7G6rpjY-32" value="" style="whiteSpace=wrap;html=1;aspect=fixed;strokeWidth=3;" parent="1" vertex="1">
          <mxGeometry x="660" y="100" width="40" height="40" as="geometry" />
        </mxCell>
        <mxCell id="U4rwWAQ99nn0N7G6rpjY-33" value="" style="rounded=0;whiteSpace=wrap;html=1;fillColor=default;strokeWidth=3;" parent="1" vertex="1">
          <mxGeometry x="500" y="80" width="280" height="180" as="geometry" />
        </mxCell>
        <mxCell id="U4rwWAQ99nn0N7G6rpjY-34" value="" style="whiteSpace=wrap;html=1;aspect=fixed;strokeWidth=3;fillColor=#999999;" parent="1" vertex="1">
          <mxGeometry x="720" y="130" width="40" height="40" as="geometry" />
        </mxCell>
        <mxCell id="U4rwWAQ99nn0N7G6rpjY-35" value="" style="whiteSpace=wrap;html=1;aspect=fixed;strokeWidth=3;" parent="1" vertex="1">
          <mxGeometry x="520" y="130" width="40" height="40" as="geometry" />
        </mxCell>
        <mxCell id="U4rwWAQ99nn0N7G6rpjY-36" value="" style="ellipse;whiteSpace=wrap;html=1;aspect=fixed;strokeWidth=3;" parent="1" vertex="1">
          <mxGeometry x="625" y="135" width="30" height="30" as="geometry" />
        </mxCell>
        <mxCell id="U4rwWAQ99nn0N7G6rpjY-37" value="" style="whiteSpace=wrap;html=1;aspect=fixed;strokeWidth=3;" parent="1" vertex="1">
          <mxGeometry x="620" y="200" width="40" height="40" as="geometry" />
        </mxCell>
        <mxCell id="U4rwWAQ99nn0N7G6rpjY-38" value="" style="rounded=0;whiteSpace=wrap;html=1;fillColor=default;strokeWidth=3;" parent="1" vertex="1">
          <mxGeometry x="460" y="180" width="280" height="180" as="geometry" />
        </mxCell>
        <mxCell id="U4rwWAQ99nn0N7G6rpjY-39" value="" style="whiteSpace=wrap;html=1;aspect=fixed;strokeWidth=3;" parent="1" vertex="1">
          <mxGeometry x="680" y="230" width="40" height="40" as="geometry" />
        </mxCell>
        <mxCell id="U4rwWAQ99nn0N7G6rpjY-40" value="" style="whiteSpace=wrap;html=1;aspect=fixed;strokeWidth=3;" parent="1" vertex="1">
          <mxGeometry x="480" y="230" width="40" height="40" as="geometry" />
        </mxCell>
        <mxCell id="U4rwWAQ99nn0N7G6rpjY-41" value="" style="ellipse;whiteSpace=wrap;html=1;aspect=fixed;strokeWidth=3;" parent="1" vertex="1">
          <mxGeometry x="585" y="235" width="30" height="30" as="geometry" />
        </mxCell>
        <mxCell id="U4rwWAQ99nn0N7G6rpjY-42" value="" style="whiteSpace=wrap;html=1;aspect=fixed;strokeWidth=3;" parent="1" vertex="1">
          <mxGeometry x="580" y="300" width="40" height="40" as="geometry" />
        </mxCell>
        <mxCell id="U4rwWAQ99nn0N7G6rpjY-43" value="" style="rounded=0;whiteSpace=wrap;html=1;fillColor=default;strokeWidth=3;" parent="1" vertex="1">
          <mxGeometry x="420" y="280" width="280" height="180" as="geometry" />
        </mxCell>
        <mxCell id="U4rwWAQ99nn0N7G6rpjY-44" value="" style="whiteSpace=wrap;html=1;aspect=fixed;strokeWidth=3;" parent="1" vertex="1">
          <mxGeometry x="640" y="330" width="40" height="40" as="geometry" />
        </mxCell>
        <mxCell id="U4rwWAQ99nn0N7G6rpjY-45" value="" style="whiteSpace=wrap;html=1;aspect=fixed;strokeWidth=3;" parent="1" vertex="1">
          <mxGeometry x="440" y="330" width="40" height="40" as="geometry" />
        </mxCell>
        <mxCell id="U4rwWAQ99nn0N7G6rpjY-46" value="" style="ellipse;whiteSpace=wrap;html=1;aspect=fixed;strokeWidth=3;" parent="1" vertex="1">
          <mxGeometry x="545" y="335" width="30" height="30" as="geometry" />
        </mxCell>
        <mxCell id="U4rwWAQ99nn0N7G6rpjY-47" value="" style="whiteSpace=wrap;html=1;aspect=fixed;strokeWidth=3;fillColor=#999999;" parent="1" vertex="1">
          <mxGeometry x="540" y="400" width="40" height="40" as="geometry" />
        </mxCell>
        <mxCell id="U4rwWAQ99nn0N7G6rpjY-56" value="" style="endArrow=classic;html=1;rounded=0;strokeWidth=3;entryX=0;entryY=0;entryDx=0;entryDy=0;exitX=0;exitY=0;exitDx=0;exitDy=0;" parent="1" edge="1">
          <mxGeometry width="50" height="50" relative="1" as="geometry">
            <mxPoint x="15" y="280" as="sourcePoint" />
            <mxPoint x="135" y="-20" as="targetPoint" />
          </mxGeometry>
        </mxCell>
        <mxCell id="U4rwWAQ99nn0N7G6rpjY-57" value="&lt;font style=&quot;font-size: 20px;&quot; face=&quot;Arial&quot;&gt;&lt;b&gt;Hold&lt;/b&gt;&lt;/font&gt;" style="text;html=1;align=center;verticalAlign=middle;whiteSpace=wrap;rounded=0;" parent="1" vertex="1">
          <mxGeometry x="150" y="365" width="60" height="30" as="geometry" />
        </mxCell>
        <mxCell id="U4rwWAQ99nn0N7G6rpjY-58" value="&lt;font style=&quot;font-size: 20px;&quot; face=&quot;Arial&quot;&gt;&lt;b&gt;Fixation&lt;/b&gt;&lt;/font&gt;" style="text;html=1;align=center;verticalAlign=middle;whiteSpace=wrap;rounded=0;" parent="1" vertex="1">
          <mxGeometry x="170" y="200" width="100" height="30" as="geometry" />
        </mxCell>
        <mxCell id="U4rwWAQ99nn0N7G6rpjY-59" value="&lt;font style=&quot;font-size: 20px;&quot; face=&quot;Arial&quot;&gt;&lt;b&gt;Cue&lt;/b&gt;&lt;/font&gt;" style="text;html=1;align=center;verticalAlign=middle;whiteSpace=wrap;rounded=0;" parent="1" vertex="1">
          <mxGeometry x="330" y="90" width="60" height="30" as="geometry" />
        </mxCell>
        <mxCell id="U4rwWAQ99nn0N7G6rpjY-60" value="&lt;font style=&quot;font-size: 20px;&quot; face=&quot;Arial&quot;&gt;&lt;b&gt;Target&lt;/b&gt;&lt;/font&gt;" style="text;html=1;align=center;verticalAlign=middle;whiteSpace=wrap;rounded=0;" parent="1" vertex="1">
          <mxGeometry x="360" y="-10" width="80" height="30" as="geometry" />
        </mxCell>
        <mxCell id="U4rwWAQ99nn0N7G6rpjY-61" value="" style="shape=sumEllipse;perimeter=ellipsePerimeter;whiteSpace=wrap;html=1;backgroundOutline=1;strokeWidth=3;" parent="1" vertex="1">
          <mxGeometry x="205" y="235" width="30" height="30" as="geometry" />
        </mxCell>
        <mxCell id="U4rwWAQ99nn0N7G6rpjY-62" value="" style="shape=sumEllipse;perimeter=ellipsePerimeter;whiteSpace=wrap;html=1;backgroundOutline=1;strokeWidth=3;" parent="1" vertex="1">
          <mxGeometry x="245" y="135" width="30" height="30" as="geometry" />
        </mxCell>
        <mxCell id="U4rwWAQ99nn0N7G6rpjY-63" value="" style="shape=sumEllipse;perimeter=ellipsePerimeter;whiteSpace=wrap;html=1;backgroundOutline=1;strokeWidth=3;" parent="1" vertex="1">
          <mxGeometry x="280" y="35" width="30" height="30" as="geometry" />
        </mxCell>
        <mxCell id="U4rwWAQ99nn0N7G6rpjY-64" value="" style="shape=sumEllipse;perimeter=ellipsePerimeter;whiteSpace=wrap;html=1;backgroundOutline=1;strokeWidth=3;" parent="1" vertex="1">
          <mxGeometry x="585" y="235" width="30" height="30" as="geometry" />
        </mxCell>
        <mxCell id="U4rwWAQ99nn0N7G6rpjY-65" value="" style="shape=sumEllipse;perimeter=ellipsePerimeter;whiteSpace=wrap;html=1;backgroundOutline=1;strokeWidth=3;" parent="1" vertex="1">
          <mxGeometry x="625" y="135" width="30" height="30" as="geometry" />
        </mxCell>
        <mxCell id="U4rwWAQ99nn0N7G6rpjY-66" value="" style="shape=sumEllipse;perimeter=ellipsePerimeter;whiteSpace=wrap;html=1;backgroundOutline=1;strokeWidth=3;" parent="1" vertex="1">
          <mxGeometry x="665" y="35" width="30" height="30" as="geometry" />
        </mxCell>
        <mxCell id="U4rwWAQ99nn0N7G6rpjY-78" value="&lt;div align=&quot;left&quot;&gt;&lt;font style=&quot;font-size: 20px;&quot;&gt;Hold Press&lt;/font&gt;&lt;/div&gt;" style="text;html=1;align=left;verticalAlign=middle;whiteSpace=wrap;rounded=0;" parent="1" vertex="1">
          <mxGeometry x="-38" y="235" width="70" height="45" as="geometry" />
        </mxCell>
        <mxCell id="U4rwWAQ99nn0N7G6rpjY-79" value="&lt;div align=&quot;left&quot; style=&quot;font-size: 19px;&quot;&gt;&lt;font style=&quot;font-size: 20px;&quot;&gt;Cue Delay&lt;/font&gt;&lt;/div&gt;&lt;div align=&quot;left&quot; style=&quot;font-size: 19px;&quot;&gt;&lt;font style=&quot;font-size: 20px;&quot;&gt;(0.5-1.5 s)&lt;br&gt;&lt;/font&gt;&lt;/div&gt;" style="text;html=1;align=left;verticalAlign=middle;whiteSpace=wrap;rounded=0;" parent="1" vertex="1">
          <mxGeometry x="-38" y="120" width="110" height="50" as="geometry" />
        </mxCell>
        <mxCell id="U4rwWAQ99nn0N7G6rpjY-80" value="&lt;div align=&quot;left&quot; style=&quot;font-size: 17px;&quot;&gt;&lt;font style=&quot;font-size: 20px;&quot;&gt;Cue-Target Interval&lt;/font&gt;&lt;/div&gt;&lt;div align=&quot;left&quot; style=&quot;font-size: 17px;&quot;&gt;&lt;font style=&quot;font-size: 20px;&quot;&gt;(0.1, 0.4, 0.7 s)&lt;br&gt;&lt;/font&gt;&lt;/div&gt;" style="text;html=1;align=left;verticalAlign=middle;whiteSpace=wrap;rounded=0;" parent="1" vertex="1">
          <mxGeometry x="-38" width="140" height="60" as="geometry" />
        </mxCell>
        <mxCell id="U4rwWAQ99nn0N7G6rpjY-82" value="&lt;font size=&quot;1&quot; face=&quot;Arial&quot;&gt;&lt;b style=&quot;font-size: 28px;&quot;&gt;Valid&lt;/b&gt;&lt;/font&gt;" style="text;html=1;align=center;verticalAlign=middle;whiteSpace=wrap;rounded=0;" parent="1" vertex="1">
          <mxGeometry x="255" y="-60" width="80" height="30" as="geometry" />
        </mxCell>
        <mxCell id="U4rwWAQ99nn0N7G6rpjY-83" value="&lt;font size=&quot;1&quot; face=&quot;Arial&quot;&gt;&lt;b style=&quot;font-size: 28px;&quot;&gt;Invalid&lt;/b&gt;&lt;/font&gt;" style="text;html=1;align=center;verticalAlign=middle;whiteSpace=wrap;rounded=0;" parent="1" vertex="1">
          <mxGeometry x="640" y="-60" width="80" height="30" as="geometry" />
        </mxCell>
      </root>
    </mxGraphModel>
  </diagram>
</mxfile>
